<mxfile host="app.diagrams.net" modified="2024-01-29T12:37:55.291Z" agent="Mozilla/5.0 (Windows NT 10.0; Win64; x64) AppleWebKit/537.36 (KHTML, like Gecko) Chrome/121.0.0.0 Safari/537.36" etag="BioSlNDddf_ytNM4aKmP" version="23.0.2" type="device">
  <diagram id="R2lEEEUBdFMjLlhIrx00" name="Page-1">
    <mxGraphModel dx="1354" dy="794" grid="1" gridSize="10" guides="1" tooltips="1" connect="1" arrows="1" fold="1" page="1" pageScale="1" pageWidth="850" pageHeight="1100" math="0" shadow="0" extFonts="Permanent Marker^https://fonts.googleapis.com/css?family=Permanent+Marker">
      <root>
        <mxCell id="0" />
        <mxCell id="1" parent="0" />
        <mxCell id="4fOC01wrKj_6gUVeRU2l-2" value="&lt;font size=&quot;1&quot; style=&quot;&quot;&gt;&lt;b style=&quot;font-size: 25px;&quot;&gt;Department&lt;/b&gt;&lt;/font&gt;" style="rounded=0;whiteSpace=wrap;html=1;" vertex="1" parent="1">
          <mxGeometry x="130" y="400" width="160" height="70" as="geometry" />
        </mxCell>
        <mxCell id="4fOC01wrKj_6gUVeRU2l-4" value="&lt;span style=&quot;font-size: 25px;&quot;&gt;&lt;b&gt;Course&lt;/b&gt;&lt;/span&gt;" style="rounded=0;whiteSpace=wrap;html=1;" vertex="1" parent="1">
          <mxGeometry x="600" y="650" width="120" height="60" as="geometry" />
        </mxCell>
        <mxCell id="4fOC01wrKj_6gUVeRU2l-5" value="&lt;font size=&quot;1&quot; style=&quot;&quot;&gt;&lt;b style=&quot;font-size: 25px;&quot;&gt;Student&lt;/b&gt;&lt;/font&gt;" style="rounded=0;whiteSpace=wrap;html=1;" vertex="1" parent="1">
          <mxGeometry x="580" y="180" width="120" height="60" as="geometry" />
        </mxCell>
        <mxCell id="4fOC01wrKj_6gUVeRU2l-11" value="&lt;font style=&quot;font-size: 23px;&quot;&gt;ID&lt;/font&gt;" style="ellipse;whiteSpace=wrap;html=1;align=center;fontStyle=4;" vertex="1" parent="1">
          <mxGeometry x="460" y="760" width="130" height="60" as="geometry" />
        </mxCell>
        <mxCell id="4fOC01wrKj_6gUVeRU2l-12" value="&lt;font style=&quot;font-size: 25px;&quot;&gt;name&lt;/font&gt;" style="ellipse;whiteSpace=wrap;html=1;align=center;" vertex="1" parent="1">
          <mxGeometry x="490" y="840" width="130" height="60" as="geometry" />
        </mxCell>
        <mxCell id="4fOC01wrKj_6gUVeRU2l-13" value="&lt;font style=&quot;font-size: 25px;&quot;&gt;description&lt;/font&gt;" style="ellipse;whiteSpace=wrap;html=1;align=center;" vertex="1" parent="1">
          <mxGeometry x="580" y="910" width="130" height="60" as="geometry" />
        </mxCell>
        <mxCell id="4fOC01wrKj_6gUVeRU2l-14" value="&lt;font style=&quot;font-size: 25px;&quot;&gt;credits&lt;/font&gt;" style="ellipse;whiteSpace=wrap;html=1;align=center;" vertex="1" parent="1">
          <mxGeometry x="710" y="850" width="130" height="60" as="geometry" />
        </mxCell>
        <mxCell id="4fOC01wrKj_6gUVeRU2l-15" value="" style="endArrow=none;html=1;rounded=0;exitX=1;exitY=0;exitDx=0;exitDy=0;entryX=0;entryY=1;entryDx=0;entryDy=0;" edge="1" parent="1" source="4fOC01wrKj_6gUVeRU2l-11" target="4fOC01wrKj_6gUVeRU2l-4">
          <mxGeometry relative="1" as="geometry">
            <mxPoint x="500" y="660" as="sourcePoint" />
            <mxPoint x="660" y="660" as="targetPoint" />
          </mxGeometry>
        </mxCell>
        <mxCell id="4fOC01wrKj_6gUVeRU2l-16" value="" style="endArrow=none;html=1;rounded=0;exitX=1;exitY=0.5;exitDx=0;exitDy=0;entryX=0.25;entryY=1;entryDx=0;entryDy=0;" edge="1" parent="1" source="4fOC01wrKj_6gUVeRU2l-12" target="4fOC01wrKj_6gUVeRU2l-4">
          <mxGeometry relative="1" as="geometry">
            <mxPoint x="581" y="779" as="sourcePoint" />
            <mxPoint x="660" y="700" as="targetPoint" />
          </mxGeometry>
        </mxCell>
        <mxCell id="4fOC01wrKj_6gUVeRU2l-17" value="" style="endArrow=none;html=1;rounded=0;exitX=0.5;exitY=0;exitDx=0;exitDy=0;entryX=0.5;entryY=1;entryDx=0;entryDy=0;" edge="1" parent="1" source="4fOC01wrKj_6gUVeRU2l-13" target="4fOC01wrKj_6gUVeRU2l-4">
          <mxGeometry relative="1" as="geometry">
            <mxPoint x="630" y="880" as="sourcePoint" />
            <mxPoint x="670" y="710" as="targetPoint" />
          </mxGeometry>
        </mxCell>
        <mxCell id="4fOC01wrKj_6gUVeRU2l-18" value="" style="endArrow=none;html=1;rounded=0;exitX=0.5;exitY=0;exitDx=0;exitDy=0;entryX=0.75;entryY=1;entryDx=0;entryDy=0;" edge="1" parent="1" source="4fOC01wrKj_6gUVeRU2l-14" target="4fOC01wrKj_6gUVeRU2l-4">
          <mxGeometry relative="1" as="geometry">
            <mxPoint x="655" y="920" as="sourcePoint" />
            <mxPoint x="720" y="700" as="targetPoint" />
          </mxGeometry>
        </mxCell>
        <mxCell id="4fOC01wrKj_6gUVeRU2l-19" value="&lt;font style=&quot;font-size: 23px;&quot;&gt;ID&lt;/font&gt;" style="ellipse;whiteSpace=wrap;html=1;align=center;fontStyle=4;" vertex="1" parent="1">
          <mxGeometry x="40" y="290" width="130" height="60" as="geometry" />
        </mxCell>
        <mxCell id="4fOC01wrKj_6gUVeRU2l-20" value="&lt;font style=&quot;font-size: 25px;&quot;&gt;name&lt;/font&gt;" style="ellipse;whiteSpace=wrap;html=1;align=center;" vertex="1" parent="1">
          <mxGeometry x="10" y="500" width="130" height="60" as="geometry" />
        </mxCell>
        <mxCell id="4fOC01wrKj_6gUVeRU2l-21" value="" style="endArrow=none;html=1;rounded=0;exitX=1;exitY=0;exitDx=0;exitDy=0;entryX=0.25;entryY=1;entryDx=0;entryDy=0;" edge="1" parent="1" source="4fOC01wrKj_6gUVeRU2l-20" target="4fOC01wrKj_6gUVeRU2l-2">
          <mxGeometry relative="1" as="geometry">
            <mxPoint x="581" y="779" as="sourcePoint" />
            <mxPoint x="660" y="700" as="targetPoint" />
          </mxGeometry>
        </mxCell>
        <mxCell id="4fOC01wrKj_6gUVeRU2l-22" value="" style="endArrow=none;html=1;rounded=0;exitX=1;exitY=1;exitDx=0;exitDy=0;entryX=0.25;entryY=0;entryDx=0;entryDy=0;" edge="1" parent="1" source="4fOC01wrKj_6gUVeRU2l-19" target="4fOC01wrKj_6gUVeRU2l-2">
          <mxGeometry relative="1" as="geometry">
            <mxPoint x="141" y="509" as="sourcePoint" />
            <mxPoint x="180" y="480" as="targetPoint" />
          </mxGeometry>
        </mxCell>
        <mxCell id="4fOC01wrKj_6gUVeRU2l-23" value="&lt;font style=&quot;font-size: 23px;&quot;&gt;ID&lt;/font&gt;" style="ellipse;whiteSpace=wrap;html=1;align=center;fontStyle=4;" vertex="1" parent="1">
          <mxGeometry x="230" y="170" width="130" height="60" as="geometry" />
        </mxCell>
        <mxCell id="4fOC01wrKj_6gUVeRU2l-24" value="&lt;font style=&quot;font-size: 25px;&quot;&gt;first_name&lt;/font&gt;" style="ellipse;whiteSpace=wrap;html=1;align=center;" vertex="1" parent="1">
          <mxGeometry x="240" y="60" width="130" height="60" as="geometry" />
        </mxCell>
        <mxCell id="4fOC01wrKj_6gUVeRU2l-25" value="&lt;font style=&quot;font-size: 25px;&quot;&gt;gender&lt;/font&gt;" style="ellipse;whiteSpace=wrap;html=1;align=center;" vertex="1" parent="1">
          <mxGeometry x="850" y="51" width="130" height="60" as="geometry" />
        </mxCell>
        <mxCell id="4fOC01wrKj_6gUVeRU2l-26" value="&lt;font style=&quot;font-size: 25px;&quot;&gt;email&lt;/font&gt;" style="ellipse;whiteSpace=wrap;html=1;align=center;" vertex="1" parent="1">
          <mxGeometry x="850" y="130" width="130" height="60" as="geometry" />
        </mxCell>
        <mxCell id="4fOC01wrKj_6gUVeRU2l-27" value="&lt;font style=&quot;font-size: 25px;&quot;&gt;address&lt;/font&gt;" style="ellipse;whiteSpace=wrap;html=1;align=center;" vertex="1" parent="1">
          <mxGeometry x="540" y="90" width="130" height="60" as="geometry" />
        </mxCell>
        <mxCell id="4fOC01wrKj_6gUVeRU2l-28" value="&lt;font style=&quot;font-size: 25px;&quot;&gt;last_name&lt;/font&gt;" style="ellipse;whiteSpace=wrap;html=1;align=center;" vertex="1" parent="1">
          <mxGeometry x="350" y="10" width="130" height="60" as="geometry" />
        </mxCell>
        <mxCell id="4fOC01wrKj_6gUVeRU2l-29" value="&lt;font style=&quot;font-size: 25px;&quot;&gt;birthdate&lt;/font&gt;" style="ellipse;whiteSpace=wrap;html=1;align=center;" vertex="1" parent="1">
          <mxGeometry x="820" y="220" width="130" height="60" as="geometry" />
        </mxCell>
        <mxCell id="4fOC01wrKj_6gUVeRU2l-31" value="" style="endArrow=none;html=1;rounded=0;exitX=1;exitY=0.5;exitDx=0;exitDy=0;entryX=0;entryY=1;entryDx=0;entryDy=0;" edge="1" parent="1" source="4fOC01wrKj_6gUVeRU2l-23" target="4fOC01wrKj_6gUVeRU2l-5">
          <mxGeometry relative="1" as="geometry">
            <mxPoint x="161" y="351" as="sourcePoint" />
            <mxPoint x="180" y="410" as="targetPoint" />
          </mxGeometry>
        </mxCell>
        <mxCell id="4fOC01wrKj_6gUVeRU2l-32" value="" style="endArrow=none;html=1;rounded=0;exitX=1;exitY=1;exitDx=0;exitDy=0;entryX=0;entryY=0.5;entryDx=0;entryDy=0;" edge="1" parent="1" source="4fOC01wrKj_6gUVeRU2l-24" target="4fOC01wrKj_6gUVeRU2l-5">
          <mxGeometry relative="1" as="geometry">
            <mxPoint x="330" y="130" as="sourcePoint" />
            <mxPoint x="590" y="250" as="targetPoint" />
          </mxGeometry>
        </mxCell>
        <mxCell id="4fOC01wrKj_6gUVeRU2l-33" value="" style="endArrow=none;html=1;rounded=0;exitX=0.5;exitY=1;exitDx=0;exitDy=0;entryX=0;entryY=0;entryDx=0;entryDy=0;" edge="1" parent="1" source="4fOC01wrKj_6gUVeRU2l-28" target="4fOC01wrKj_6gUVeRU2l-5">
          <mxGeometry relative="1" as="geometry">
            <mxPoint x="401" y="91" as="sourcePoint" />
            <mxPoint x="590" y="220" as="targetPoint" />
          </mxGeometry>
        </mxCell>
        <mxCell id="4fOC01wrKj_6gUVeRU2l-34" value="" style="endArrow=none;html=1;rounded=0;exitX=0.5;exitY=1;exitDx=0;exitDy=0;entryX=0.25;entryY=0;entryDx=0;entryDy=0;" edge="1" parent="1" source="4fOC01wrKj_6gUVeRU2l-27" target="4fOC01wrKj_6gUVeRU2l-5">
          <mxGeometry relative="1" as="geometry">
            <mxPoint x="500" y="80" as="sourcePoint" />
            <mxPoint x="590" y="190" as="targetPoint" />
          </mxGeometry>
        </mxCell>
        <mxCell id="4fOC01wrKj_6gUVeRU2l-35" value="" style="endArrow=none;html=1;rounded=0;exitX=0;exitY=1;exitDx=0;exitDy=0;entryX=0.5;entryY=0;entryDx=0;entryDy=0;" edge="1" parent="1" source="4fOC01wrKj_6gUVeRU2l-73" target="4fOC01wrKj_6gUVeRU2l-5">
          <mxGeometry relative="1" as="geometry">
            <mxPoint x="708.5798489951435" y="60.99959212124463" as="sourcePoint" />
            <mxPoint x="620" y="190" as="targetPoint" />
          </mxGeometry>
        </mxCell>
        <mxCell id="4fOC01wrKj_6gUVeRU2l-36" value="" style="endArrow=none;html=1;rounded=0;exitX=0;exitY=0.5;exitDx=0;exitDy=0;entryX=0.75;entryY=0;entryDx=0;entryDy=0;" edge="1" parent="1" source="4fOC01wrKj_6gUVeRU2l-25" target="4fOC01wrKj_6gUVeRU2l-5">
          <mxGeometry relative="1" as="geometry">
            <mxPoint x="719" y="71" as="sourcePoint" />
            <mxPoint x="650" y="190" as="targetPoint" />
          </mxGeometry>
        </mxCell>
        <mxCell id="4fOC01wrKj_6gUVeRU2l-37" value="" style="endArrow=none;html=1;rounded=0;exitX=0;exitY=0;exitDx=0;exitDy=0;entryX=1;entryY=0;entryDx=0;entryDy=0;" edge="1" parent="1" source="4fOC01wrKj_6gUVeRU2l-26" target="4fOC01wrKj_6gUVeRU2l-5">
          <mxGeometry relative="1" as="geometry">
            <mxPoint x="720" y="130" as="sourcePoint" />
            <mxPoint x="700" y="180" as="targetPoint" />
          </mxGeometry>
        </mxCell>
        <mxCell id="4fOC01wrKj_6gUVeRU2l-38" value="" style="endArrow=none;html=1;rounded=0;exitX=1;exitY=0.5;exitDx=0;exitDy=0;entryX=0;entryY=0;entryDx=0;entryDy=0;" edge="1" parent="1" source="4fOC01wrKj_6gUVeRU2l-5" target="4fOC01wrKj_6gUVeRU2l-29">
          <mxGeometry relative="1" as="geometry">
            <mxPoint x="330" y="130" as="sourcePoint" />
            <mxPoint x="590" y="250" as="targetPoint" />
          </mxGeometry>
        </mxCell>
        <mxCell id="4fOC01wrKj_6gUVeRU2l-39" value="&lt;font style=&quot;font-size: 20px;&quot;&gt;contain&lt;/font&gt;" style="shape=rhombus;perimeter=rhombusPerimeter;whiteSpace=wrap;html=1;align=center;" vertex="1" parent="1">
          <mxGeometry x="280" y="580" width="130" height="80" as="geometry" />
        </mxCell>
        <mxCell id="4fOC01wrKj_6gUVeRU2l-40" value="&lt;span style=&quot;font-size: 20px;&quot;&gt;assigned&lt;/span&gt;" style="shape=rhombus;perimeter=rhombusPerimeter;whiteSpace=wrap;html=1;align=center;" vertex="1" parent="1">
          <mxGeometry x="550" y="440" width="130" height="80" as="geometry" />
        </mxCell>
        <mxCell id="4fOC01wrKj_6gUVeRU2l-41" value="&lt;span style=&quot;font-size: 20px;&quot;&gt;enrolled in&lt;/span&gt;" style="shape=rhombus;perimeter=rhombusPerimeter;whiteSpace=wrap;html=1;align=center;" vertex="1" parent="1">
          <mxGeometry x="380" y="300" width="130" height="80" as="geometry" />
        </mxCell>
        <mxCell id="4fOC01wrKj_6gUVeRU2l-42" value="&lt;font style=&quot;font-size: 25px;&quot;&gt;grade&lt;/font&gt;" style="ellipse;whiteSpace=wrap;html=1;align=center;" vertex="1" parent="1">
          <mxGeometry x="900" y="480" width="130" height="60" as="geometry" />
        </mxCell>
        <mxCell id="4fOC01wrKj_6gUVeRU2l-43" value="&lt;font style=&quot;font-size: 25px;&quot;&gt;semester&lt;/font&gt;" style="ellipse;whiteSpace=wrap;html=1;align=center;" vertex="1" parent="1">
          <mxGeometry x="870" y="400" width="130" height="60" as="geometry" />
        </mxCell>
        <mxCell id="4fOC01wrKj_6gUVeRU2l-44" value="&lt;font style=&quot;font-size: 25px;&quot;&gt;year&lt;/font&gt;" style="ellipse;whiteSpace=wrap;html=1;align=center;" vertex="1" parent="1">
          <mxGeometry x="830" y="320" width="130" height="60" as="geometry" />
        </mxCell>
        <mxCell id="4fOC01wrKj_6gUVeRU2l-45" value="" style="endArrow=none;html=1;rounded=0;exitX=1;exitY=0;exitDx=0;exitDy=0;entryX=0.5;entryY=1;entryDx=0;entryDy=0;" edge="1" parent="1" source="4fOC01wrKj_6gUVeRU2l-40" target="4fOC01wrKj_6gUVeRU2l-44">
          <mxGeometry relative="1" as="geometry">
            <mxPoint x="330" y="130" as="sourcePoint" />
            <mxPoint x="590" y="250" as="targetPoint" />
          </mxGeometry>
        </mxCell>
        <mxCell id="4fOC01wrKj_6gUVeRU2l-46" value="" style="endArrow=none;html=1;rounded=0;exitX=1;exitY=0.5;exitDx=0;exitDy=0;entryX=0;entryY=0.5;entryDx=0;entryDy=0;" edge="1" parent="1" source="4fOC01wrKj_6gUVeRU2l-40" target="4fOC01wrKj_6gUVeRU2l-43">
          <mxGeometry relative="1" as="geometry">
            <mxPoint x="455" y="310" as="sourcePoint" />
            <mxPoint x="425" y="270" as="targetPoint" />
          </mxGeometry>
        </mxCell>
        <mxCell id="4fOC01wrKj_6gUVeRU2l-48" value="" style="endArrow=none;html=1;rounded=0;exitX=1;exitY=0.5;exitDx=0;exitDy=0;entryX=0;entryY=0.5;entryDx=0;entryDy=0;" edge="1" parent="1" source="4fOC01wrKj_6gUVeRU2l-40" target="4fOC01wrKj_6gUVeRU2l-42">
          <mxGeometry relative="1" as="geometry">
            <mxPoint x="423" y="330" as="sourcePoint" />
            <mxPoint x="331" y="261" as="targetPoint" />
          </mxGeometry>
        </mxCell>
        <mxCell id="4fOC01wrKj_6gUVeRU2l-55" value="" style="shape=link;html=1;rounded=0;exitX=0.5;exitY=0;exitDx=0;exitDy=0;entryX=0.5;entryY=1;entryDx=0;entryDy=0;" edge="1" parent="1" source="4fOC01wrKj_6gUVeRU2l-40" target="4fOC01wrKj_6gUVeRU2l-5">
          <mxGeometry relative="1" as="geometry">
            <mxPoint x="500" y="500" as="sourcePoint" />
            <mxPoint x="750" y="420" as="targetPoint" />
          </mxGeometry>
        </mxCell>
        <mxCell id="4fOC01wrKj_6gUVeRU2l-56" value="N" style="resizable=0;html=1;whiteSpace=wrap;align=right;verticalAlign=bottom;" connectable="0" vertex="1" parent="4fOC01wrKj_6gUVeRU2l-55">
          <mxGeometry x="1" relative="1" as="geometry">
            <mxPoint x="15" y="20" as="offset" />
          </mxGeometry>
        </mxCell>
        <mxCell id="4fOC01wrKj_6gUVeRU2l-57" value="" style="endArrow=none;html=1;rounded=0;entryX=0.5;entryY=0;entryDx=0;entryDy=0;exitX=0.5;exitY=1;exitDx=0;exitDy=0;" edge="1" parent="1" source="4fOC01wrKj_6gUVeRU2l-40" target="4fOC01wrKj_6gUVeRU2l-4">
          <mxGeometry relative="1" as="geometry">
            <mxPoint x="560" y="370" as="sourcePoint" />
            <mxPoint x="720" y="370" as="targetPoint" />
          </mxGeometry>
        </mxCell>
        <mxCell id="4fOC01wrKj_6gUVeRU2l-58" value="N" style="resizable=0;html=1;whiteSpace=wrap;align=right;verticalAlign=bottom;" connectable="0" vertex="1" parent="4fOC01wrKj_6gUVeRU2l-57">
          <mxGeometry x="1" relative="1" as="geometry">
            <mxPoint x="10" as="offset" />
          </mxGeometry>
        </mxCell>
        <mxCell id="4fOC01wrKj_6gUVeRU2l-59" value="" style="shape=link;html=1;rounded=0;entryX=0;entryY=0.5;entryDx=0;entryDy=0;exitX=1;exitY=1;exitDx=0;exitDy=0;" edge="1" parent="1" source="4fOC01wrKj_6gUVeRU2l-39" target="4fOC01wrKj_6gUVeRU2l-4">
          <mxGeometry relative="1" as="geometry">
            <mxPoint x="460" y="590" as="sourcePoint" />
            <mxPoint x="620" y="590" as="targetPoint" />
          </mxGeometry>
        </mxCell>
        <mxCell id="4fOC01wrKj_6gUVeRU2l-60" value="N" style="resizable=0;html=1;whiteSpace=wrap;align=right;verticalAlign=bottom;" connectable="0" vertex="1" parent="4fOC01wrKj_6gUVeRU2l-59">
          <mxGeometry x="1" relative="1" as="geometry" />
        </mxCell>
        <mxCell id="4fOC01wrKj_6gUVeRU2l-61" value="" style="endArrow=none;html=1;rounded=0;exitX=0.5;exitY=1;exitDx=0;exitDy=0;entryX=0;entryY=0;entryDx=0;entryDy=0;" edge="1" parent="1" source="4fOC01wrKj_6gUVeRU2l-2" target="4fOC01wrKj_6gUVeRU2l-39">
          <mxGeometry relative="1" as="geometry">
            <mxPoint x="460" y="510" as="sourcePoint" />
            <mxPoint x="620" y="510" as="targetPoint" />
          </mxGeometry>
        </mxCell>
        <mxCell id="4fOC01wrKj_6gUVeRU2l-62" value="1" style="resizable=0;html=1;whiteSpace=wrap;align=right;verticalAlign=bottom;" connectable="0" vertex="1" parent="4fOC01wrKj_6gUVeRU2l-61">
          <mxGeometry x="1" relative="1" as="geometry">
            <mxPoint x="-105" y="-90" as="offset" />
          </mxGeometry>
        </mxCell>
        <mxCell id="4fOC01wrKj_6gUVeRU2l-63" value="" style="shape=link;html=1;rounded=0;entryX=0.25;entryY=1;entryDx=0;entryDy=0;exitX=1;exitY=0;exitDx=0;exitDy=0;" edge="1" parent="1" source="4fOC01wrKj_6gUVeRU2l-41" target="4fOC01wrKj_6gUVeRU2l-5">
          <mxGeometry relative="1" as="geometry">
            <mxPoint x="460" y="370" as="sourcePoint" />
            <mxPoint x="620" y="370" as="targetPoint" />
          </mxGeometry>
        </mxCell>
        <mxCell id="4fOC01wrKj_6gUVeRU2l-64" value="N" style="resizable=0;html=1;whiteSpace=wrap;align=right;verticalAlign=bottom;" connectable="0" vertex="1" parent="4fOC01wrKj_6gUVeRU2l-63">
          <mxGeometry x="1" relative="1" as="geometry">
            <mxPoint x="-20" y="20" as="offset" />
          </mxGeometry>
        </mxCell>
        <mxCell id="4fOC01wrKj_6gUVeRU2l-65" value="" style="endArrow=none;html=1;rounded=0;entryX=1;entryY=0.5;entryDx=0;entryDy=0;exitX=0;exitY=1;exitDx=0;exitDy=0;" edge="1" parent="1" source="4fOC01wrKj_6gUVeRU2l-41" target="4fOC01wrKj_6gUVeRU2l-2">
          <mxGeometry relative="1" as="geometry">
            <mxPoint x="460" y="370" as="sourcePoint" />
            <mxPoint x="620" y="370" as="targetPoint" />
          </mxGeometry>
        </mxCell>
        <mxCell id="4fOC01wrKj_6gUVeRU2l-66" value="1" style="resizable=0;html=1;whiteSpace=wrap;align=right;verticalAlign=bottom;" connectable="0" vertex="1" parent="4fOC01wrKj_6gUVeRU2l-65">
          <mxGeometry x="1" relative="1" as="geometry">
            <mxPoint x="20" y="15" as="offset" />
          </mxGeometry>
        </mxCell>
        <mxCell id="4fOC01wrKj_6gUVeRU2l-68" value="&lt;span style=&quot;font-size: 25px;&quot;&gt;gpa&lt;/span&gt;" style="ellipse;whiteSpace=wrap;html=1;align=center;" vertex="1" parent="1">
          <mxGeometry x="820" y="540" width="130" height="60" as="geometry" />
        </mxCell>
        <mxCell id="4fOC01wrKj_6gUVeRU2l-69" value="" style="endArrow=none;html=1;rounded=0;exitX=1;exitY=1;exitDx=0;exitDy=0;entryX=0;entryY=0;entryDx=0;entryDy=0;" edge="1" parent="1" source="4fOC01wrKj_6gUVeRU2l-40" target="4fOC01wrKj_6gUVeRU2l-68">
          <mxGeometry relative="1" as="geometry">
            <mxPoint x="390" y="350" as="sourcePoint" />
            <mxPoint x="271" y="241" as="targetPoint" />
          </mxGeometry>
        </mxCell>
        <mxCell id="4fOC01wrKj_6gUVeRU2l-71" value="" style="endArrow=none;html=1;rounded=0;exitX=0.75;exitY=1;exitDx=0;exitDy=0;entryX=0;entryY=0;entryDx=0;entryDy=0;" edge="1" parent="1" source="4fOC01wrKj_6gUVeRU2l-5" target="4fOC01wrKj_6gUVeRU2l-72">
          <mxGeometry relative="1" as="geometry">
            <mxPoint x="710" y="250" as="sourcePoint" />
            <mxPoint x="710.0000000000077" y="330" as="targetPoint" />
          </mxGeometry>
        </mxCell>
        <mxCell id="4fOC01wrKj_6gUVeRU2l-72" value="&lt;font style=&quot;font-size: 25px;&quot;&gt;cum_gpa&lt;/font&gt;" style="ellipse;whiteSpace=wrap;html=1;align=center;dashed=1;" vertex="1" parent="1">
          <mxGeometry x="680" y="300" width="140" height="60" as="geometry" />
        </mxCell>
        <mxCell id="4fOC01wrKj_6gUVeRU2l-73" value="&lt;font style=&quot;font-size: 25px;&quot;&gt;Phone&lt;/font&gt;" style="ellipse;shape=doubleEllipse;margin=3;whiteSpace=wrap;html=1;align=center;" vertex="1" parent="1">
          <mxGeometry x="700" y="10" width="130" height="60" as="geometry" />
        </mxCell>
        <mxCell id="4fOC01wrKj_6gUVeRU2l-75" value="street" style="ellipse;whiteSpace=wrap;html=1;align=center;" vertex="1" parent="1">
          <mxGeometry x="490" y="51" width="50" height="30" as="geometry" />
        </mxCell>
        <mxCell id="4fOC01wrKj_6gUVeRU2l-76" value="city" style="ellipse;whiteSpace=wrap;html=1;align=center;" vertex="1" parent="1">
          <mxGeometry x="561" y="30" width="55" height="30" as="geometry" />
        </mxCell>
        <mxCell id="4fOC01wrKj_6gUVeRU2l-77" value="" style="endArrow=none;html=1;rounded=0;exitX=0.5;exitY=1;exitDx=0;exitDy=0;entryX=0.5;entryY=0;entryDx=0;entryDy=0;" edge="1" parent="1" source="4fOC01wrKj_6gUVeRU2l-76" target="4fOC01wrKj_6gUVeRU2l-27">
          <mxGeometry relative="1" as="geometry">
            <mxPoint x="729" y="71" as="sourcePoint" />
            <mxPoint x="650" y="190" as="targetPoint" />
          </mxGeometry>
        </mxCell>
        <mxCell id="4fOC01wrKj_6gUVeRU2l-78" value="" style="endArrow=none;html=1;rounded=0;exitX=0.5;exitY=1;exitDx=0;exitDy=0;entryX=0;entryY=0;entryDx=0;entryDy=0;" edge="1" parent="1" source="4fOC01wrKj_6gUVeRU2l-75" target="4fOC01wrKj_6gUVeRU2l-27">
          <mxGeometry relative="1" as="geometry">
            <mxPoint x="670" y="50" as="sourcePoint" />
            <mxPoint x="661" y="109" as="targetPoint" />
          </mxGeometry>
        </mxCell>
        <mxCell id="4fOC01wrKj_6gUVeRU2l-79" value="" style="endArrow=none;html=1;rounded=0;exitX=0.5;exitY=1;exitDx=0;exitDy=0;entryX=1;entryY=0;entryDx=0;entryDy=0;" edge="1" parent="1" source="4fOC01wrKj_6gUVeRU2l-80" target="4fOC01wrKj_6gUVeRU2l-27">
          <mxGeometry relative="1" as="geometry">
            <mxPoint x="599" y="70" as="sourcePoint" />
            <mxPoint x="615" y="100" as="targetPoint" />
          </mxGeometry>
        </mxCell>
        <mxCell id="4fOC01wrKj_6gUVeRU2l-80" value="state" style="ellipse;whiteSpace=wrap;html=1;align=center;" vertex="1" parent="1">
          <mxGeometry x="632.5" y="45" width="55" height="30" as="geometry" />
        </mxCell>
      </root>
    </mxGraphModel>
  </diagram>
</mxfile>
